<?xml version="1.0"?><svg width="640" height="480" xmlns="http://www.w3.org/2000/svg">
 <title>brown bear</title>
 <g>
  <path fill="#784421" fill-rule="nonzero" stroke="#000000" stroke-width="4" stroke-linecap="round" stroke-linejoin="round" stroke-miterlimit="4" id="path2385" d="m435.9953,258.826904a121.497658,121.497658 0 1 1-242.995285,0a121.497658,121.497658 0 1 1242.995285,0z"/>
  <path fill="#000000" fill-opacity="0.313725" fill-rule="nonzero" stroke-width="4" stroke-linecap="round" stroke-linejoin="round" stroke-miterlimit="4" id="path3302" d="m311.488098,137.34375c-24.505157,0 -47.313843,7.255096 -66.406265,19.75c8.651184,30.481964 36.664719,52.84375 69.906265,52.84375c31.773071,0 58.799377,-20.421341 68.6875,-48.84375c-20.185913,-14.939194 -45.165039,-23.75 -72.1875,-23.75z"/>
  <path transform="rotate(8.836820602416992 230.3643493652344,203.52093505859372) " fill="#000000" fill-opacity="0.313725" fill-rule="nonzero" stroke-width="8.547946" stroke-linecap="round" stroke-linejoin="round" stroke-miterlimit="4" id="path3242" d="m253.341888,203.520935a22.977535,22.977535 0 1 1-45.955078,0a22.977535,22.977535 0 1 145.955078,0z"/>
  <path fill="#000000" fill-opacity="0.313725" fill-rule="nonzero" stroke-width="4" stroke-linecap="round" stroke-linejoin="round" stroke-miterlimit="4" id="path3276" d="m311.493225,137.33075c-12.925415,0 -25.374878,2.036987 -37.0625,5.78125c10.513916,-2.455444 21.602173,-3.78125 33.0625,-3.78125c31.437561,0 60.107605,9.878082 81.6875,26.09375c-21.063934,-17.541321 -48.153809,-28.09375 -77.6875,-28.09375zm115.0625,82.375c1.594299,6.488159 2.437531,13.187195 2.437531,20.0625c0,55.443604 -54.433319,100.4375 -121.500031,100.4375c-56.08403,0 -103.310867,-31.458984 -117.281235,-74.1875c3.724106,63.724609 56.627838,114.3125 121.281235,114.3125c67.066711,0 121.500031,-54.433289 121.500031,-121.5c0,-13.682556 -2.261383,-26.849182 -6.437531,-39.125z"/>
  <path fill="#784421" fill-rule="nonzero" stroke="#000000" stroke-width="4" stroke-linecap="round" stroke-linejoin="round" stroke-miterlimit="4" id="path2479" d="m258.831848,56c-11.055389,0 -20.031265,8.975891 -20.031265,20.03125c0,7.154602 3.75798,13.426208 9.40625,16.96875c-5.971085,10.554169 -9.40625,22.735046 -9.40625,35.71875c0,40.13443 32.553085,72.71875 72.687515,72.71875c40.134399,0 72.71875,-32.58432 72.718719,-72.71875c0,-12.983704 -3.435181,-25.164581 -9.406219,-35.71875c5.635681,-3.545105 9.406219,-9.82373 9.406219,-16.96875c0,-11.055359 -8.975861,-20.03125 -20.03125,-20.03125c-7.14502,0 -13.392395,3.770569 -16.937469,9.40625c-10.559631,-5.97937 -22.756622,-9.40625 -35.75,-9.40625c-12.98996,0 -25.161072,3.42984 -35.718781,9.40625c-3.545105,-5.635681 -9.79245,-9.40625 -16.937469,-9.40625z"/>
  <path fill="#784421" fill-rule="nonzero" stroke="#000000" stroke-width="4" stroke-linecap="round" stroke-linejoin="round" stroke-miterlimit="4" id="path3163" d="m370.368225,311.08075c-30.405884,0 -55.093719,24.687866 -55.093719,55.09375c0,6.286621 1.057648,12.308167 3,17.9375l104.156219,0c1.942383,-5.629333 3,-11.650879 3,-17.9375c0,-30.405884 -24.656586,-55.09375 -55.0625,-55.09375z"/>
  <path fill="#784421" fill-rule="nonzero" stroke="#000000" stroke-width="4" stroke-linecap="round" stroke-linejoin="round" stroke-miterlimit="4" id="path3165" d="m260.180725,311.08075c-30.405869,0 -55.062485,24.687866 -55.062485,55.09375c0,6.286621 1.057648,12.308167 3,17.9375l104.156265,0c1.942322,-5.629333 3,-11.650879 3,-17.9375c0,-30.405884 -24.687897,-55.09375 -55.093781,-55.09375z"/>
  <path fill="#ffffff" fill-rule="nonzero" stroke="#000000" stroke-width="1.846154" stroke-linecap="round" stroke-linejoin="round" stroke-miterlimit="4" id="path3177" d="m309.6091,114.351654a20.459442,20.459442 0 1 1-40.918915,0a20.459442,20.459442 0 1 140.918915,0z"/>
  <path fill="#ffffff" fill-rule="nonzero" stroke="#000000" stroke-width="1.846154" stroke-linecap="round" stroke-linejoin="round" stroke-miterlimit="4" id="path3179" d="m354.934662,114.351654a20.459442,20.459442 0 1 1-40.918915,0a20.459442,20.459442 0 1 140.918915,0z"/>
  <path fill="#000000" fill-rule="nonzero" stroke-width="4" stroke-linecap="round" stroke-linejoin="round" stroke-miterlimit="4" id="path3183" d="m336.125397,118.283997a6.60998,6.60998 0 1 1-13.21994,0a6.60998,6.60998 0 1 113.21994,0z"/>
  <path fill="#000000" fill-rule="evenodd" stroke-width="1px" id="path3192" d="m295.545349,158.090485c5.215271,-5.562958 27.111023,-5.587769 31.986938,0.695343c4.630127,5.9664 -6.953674,22.947144 -15.993469,22.25177c-9.013184,-0.693329 -20.87262,-17.742706 -15.993469,-22.947113z"/>
  <path fill="#502d16" fill-rule="nonzero" stroke="#000000" stroke-width="4" stroke-linecap="round" stroke-linejoin="round" stroke-miterlimit="4" id="path3220" d="m255.305725,368.224182a14.749999,17.5 0 1 1-29.5,0a14.749999,17.5 0 1 129.5,0z"/>
  <path fill="#502d16" fill-rule="nonzero" stroke="#000000" stroke-width="4" stroke-linecap="round" stroke-linejoin="round" stroke-miterlimit="4" id="path3224" d="m292.305725,368.224182a14.749999,17.5 0 1 1-29.5,0a14.749999,17.5 0 1 129.5,0z"/>
  <path fill="#502d16" fill-rule="nonzero" stroke="#000000" stroke-width="4" stroke-linecap="round" stroke-linejoin="round" stroke-miterlimit="4" id="path3222" d="m274.805725,368.224182a14.749999,17.5 0 1 1-29.5,0a14.749999,17.5 0 1 129.5,0z"/>
  <path fill="#502d16" fill-rule="nonzero" stroke="#000000" stroke-width="4" stroke-linecap="round" stroke-linejoin="round" stroke-miterlimit="4" id="path3226" d="m368.805725,368.224182a14.749999,17.5 0 1 1-29.5,0a14.749999,17.5 0 1 129.5,0z"/>
  <path fill="#502d16" fill-rule="nonzero" stroke="#000000" stroke-width="4" stroke-linecap="round" stroke-linejoin="round" stroke-miterlimit="4" id="path3228" d="m405.805725,368.224182a14.749999,17.5 0 1 1-29.5,0a14.749999,17.5 0 1 129.5,0z"/>
  <path fill="#502d16" fill-rule="nonzero" stroke="#000000" stroke-width="4" stroke-linecap="round" stroke-linejoin="round" stroke-miterlimit="4" id="path3230" d="m388.305725,368.224182a14.749999,17.5 0 1 1-29.5,0a14.749999,17.5 0 1 129.5,0z"/>
  <path fill="#000000" fill-opacity="0.313725" fill-rule="nonzero" stroke-width="8.547946" stroke-linecap="round" stroke-linejoin="round" stroke-miterlimit="4" id="path3244" d="m427.402557,205.874496a22.977535,22.977535 0 1 1-45.955109,0a22.977535,22.977535 0 1 145.955109,0z"/>
  <path fill="#784421" fill-rule="nonzero" stroke="#000000" stroke-width="8.547946" stroke-linecap="round" stroke-linejoin="round" stroke-miterlimit="4" id="path3159" d="m239.470581,198.360641a19.899132,19.899132 0 1 1-39.798279,22.977524a19.899132,19.899132 0 1 139.798279,-22.977524z"/>
  <path fill="#784421" fill-rule="nonzero" stroke="#000000" stroke-width="8.547946" stroke-linecap="round" stroke-linejoin="round" stroke-miterlimit="4" id="path3161" d="m431.606567,224.338135a19.899132,19.899132 0 1 1-39.798279,-22.977539a19.899132,19.899132 0 1 139.798279,22.977539z"/>
  <path fill="#502d16" fill-rule="nonzero" stroke="#000000" stroke-width="7.617655" stroke-linecap="round" stroke-linejoin="round" stroke-miterlimit="4" id="path3264" d="m231.804962,214.349579a3.953983,4.500001 0 1 1-7.907959,13.696991a3.953983,4.500001 0 1 17.907959,-13.696991z"/>
  <path fill="#502d16" fill-rule="nonzero" stroke="#000000" stroke-width="7.617655" stroke-linecap="round" stroke-linejoin="round" stroke-miterlimit="4" id="path3266" d="m234.723419,194.170273a3.953983,4.500001 0 1 1-7.907959,13.697006a3.953983,4.500001 0 1 17.907959,-13.697006z"/>
  <path fill="#502d16" fill-rule="nonzero" stroke="#000000" stroke-width="7.617655" stroke-linecap="round" stroke-linejoin="round" stroke-miterlimit="4" id="path3268" d="m240.014343,203.192734a3.953983,4.500001 0 1 1-7.90799,13.697006a3.953983,4.500001 0 1 17.90799,-13.697006z"/>
  <path fill="#502d16" fill-rule="nonzero" stroke="#000000" stroke-width="7.617655" stroke-linecap="round" stroke-linejoin="round" stroke-miterlimit="4" id="path3270" d="m405.231689,217.787094a3.953983,4.500001 0 1 17.907959,13.697006a3.953983,4.500001 0 1 1-7.907959,-13.697006z"/>
  <path fill="#502d16" fill-rule="nonzero" stroke="#000000" stroke-width="7.617655" stroke-linecap="round" stroke-linejoin="round" stroke-miterlimit="4" id="path3272" d="m394.313232,199.607803a3.953983,4.500001 0 1 17.907959,13.697006a3.953983,4.500001 0 1 1-7.907959,-13.697006z"/>
  <path fill="#502d16" fill-rule="nonzero" stroke="#000000" stroke-width="7.617655" stroke-linecap="round" stroke-linejoin="round" stroke-miterlimit="4" id="path3274" d="m394.022339,213.630264a3.953983,4.500001 0 1 17.90799,13.697006a3.953983,4.500001 0 1 1-7.90799,-13.697006z"/>
  <path fill="#502d16" fill-rule="nonzero" stroke="#000000" stroke-width="4" stroke-linecap="round" stroke-linejoin="round" stroke-miterlimit="4" id="path2483" d="m364.416626,64.498016c-4.017578,0 -7.525513,2.116211 -9.527222,5.279449c6.143494,4.138062 11.433289,9.421997 15.567627,15.568298c3.153259,-2.003723 5.2547,-5.541931 5.2547,-9.552155c0,-6.233429 -5.06192,-11.295593 -11.295105,-11.295593z"/>
  <path fill="#000000" fill-rule="nonzero" stroke-width="4" stroke-linecap="round" stroke-linejoin="round" stroke-miterlimit="4" id="path2515" d="m301.711151,118.283997a6.60998,6.60998 0 1 1-13.220001,0a6.60998,6.60998 0 1 113.220001,0z"/>
  <path fill="#502d16" fill-rule="nonzero" stroke="#000000" stroke-width="4" stroke-linecap="round" stroke-linejoin="round" stroke-miterlimit="4" id="path2523" d="m258.78186,64.498016c4.017548,0 7.525513,2.116211 9.527191,5.279449c-6.143463,4.138062 -11.433319,9.421997 -15.567642,15.568298c-3.153259,-2.003723 -5.2547,-5.541931 -5.2547,-9.552155c0,-6.233429 5.061951,-11.295593 11.295151,-11.295593z"/>
  <path fill="#000000" fill-opacity="0.313725" fill-rule="nonzero" stroke-width="4" stroke-linecap="round" stroke-linejoin="round" stroke-miterlimit="4" id="path2525" d="m379.081848,101.9375c0.741974,4.151184 1.124969,8.417389 1.124969,12.78125c0.000031,40.13443 -32.58432,72.71875 -72.718719,72.71875c-30.638336,0 -56.838745,-19.002762 -67.531265,-45.84375c6.082169,33.999603 35.791824,59.84375 71.531265,59.84375c40.134399,0 72.71875,-32.58432 72.718719,-72.71875c0,-9.462494 -1.823944,-18.490509 -5.124969,-26.78125z"/>
  <title>Layer 1</title>
 </g>
</svg>
